# xmcd
#
# Track frame offsets:
#	150
#	9965
#	22205
#	35483
#	53090
#	64765
#	71467
#	79704
#	93202
#	102024
#	124823
#	138929
#	155776
#	167231
#	178106
#	196048
#	211784
#	215111
#	228500
#	233921
#	246040
#	265261
#	282058
#	298609
#
# Disc length: 4278 seconds
#
# Revision: 0
# Processed by: cddbd v1.5.2PL0 Copyright (c) Steve Scherf et al.
# Submitted via: audiograbber 1.83.01
#
DISCID=5310b418
DTITLE=Sampler - SOMETIMES YOU HAVE TO FIGHT FOR WHAT YOU LOVE
DYEAR=1900
DGENRE=
TTITLE0=Skarpretter
TTITLE1=Cut My Skin
TTITLE2=Firehouse
TTITLE3=Rasmus Modsat
TTITLE4=Haervaerk
TTITLE5=Under Al Kritik
TTITLE6=Stillhed
TTITLE7=Dreck Am Stecken
TTITLE8=Riot Ritual
TTITLE9=Borderpaki
TTITLE10=Cut My Skin
TTITLE11=Giegerzaehler
TTITLE12=Pestfest
TTITLE13=Tischlerei
TTITLE14=Teknisk
TTITLE15=Artificial
TTITLE16=Under Al Kritik
TTITLE17=Gentle Veincut
TTITLE18=Skarpretter
TTITLE19=Haervaerk
TTITLE20=Firehouse
TTITLE21=Tischlerei
TTITLE22=Hjertestop
TTITLE23=Chuzpa
EXTD=
EXTT0=
EXTT1=
EXTT2=
EXTT3=
EXTT4=
EXTT5=
EXTT6=
EXTT7=
EXTT8=
EXTT9=
EXTT10=
EXTT11=
EXTT12=
EXTT13=
EXTT14=
EXTT15=
EXTT16=
EXTT17=
EXTT18=
EXTT19=
EXTT20=
EXTT21=
EXTT22=
EXTT23=
PLAYORDER=
